<svg width="60" height="60" viewBox="0 0 60 60" fill="none" xmlns="http://www.w3.org/2000/svg">
<circle cx="30" cy="30" r="30" fill="#131023"/>
<path d="M18 20V21.875C18 27.0625 20.5873 31.6 24.439 34.125V40H42V37.5C42 34.175 35.76 32.5 32.6341 32.5H32.3415C26.7805 32.5 22.0976 27.5 22.0976 21.875V20H18ZM32.6341 20C31.3922 20 30.201 20.5268 29.3228 21.4645C28.4446 22.4021 27.9512 23.6739 27.9512 25C27.9512 26.3261 28.4446 27.5979 29.3228 28.5355C30.201 29.4732 31.3922 30 32.6341 30C33.8761 30 35.0673 29.4732 35.9455 28.5355C36.8237 27.5979 37.3171 26.3261 37.3171 25C37.3171 23.6739 36.8237 22.4021 35.9455 21.4645C35.0673 20.5268 33.8761 20 32.6341 20Z" fill="white"/>
</svg>
