<svg width="60" height="60" viewBox="0 0 60 60" fill="none" xmlns="http://www.w3.org/2000/svg">
<circle cx="30" cy="30" r="30" fill="#131023"/>
<path d="M38.5714 31.738V27.9311C38.566 26.6362 38.246 25.3607 37.6371 24.2069L42 19.9945L40.7914 18.8276L18 40.8332L19.2086 42L23.4943 37.8621H25.7143C25.7143 38.9596 26.1658 40.0121 26.9695 40.7881C27.7733 41.5641 28.8634 42 30 42C31.1366 42 32.2267 41.5641 33.0305 40.7881C33.8342 40.0121 34.2857 38.9596 34.2857 37.8621H40.2857C40.4002 37.8694 40.5151 37.853 40.6225 37.814C40.7299 37.775 40.8275 37.7143 40.9086 37.636C40.9898 37.5576 41.0527 37.4634 41.0931 37.3597C41.1335 37.256 41.1504 37.1451 41.1429 37.0345V34.5518C41.1459 34.443 41.1245 34.3349 41.0801 34.2349C41.0357 34.1349 40.9694 34.0454 40.8857 33.9725L38.5714 31.738ZM30 40.3449C29.318 40.3449 28.664 40.0833 28.1817 39.6177C27.6995 39.1521 27.4286 38.5206 27.4286 37.8621H32.5714C32.5714 38.5206 32.3005 39.1521 31.8183 39.6177C31.336 40.0833 30.682 40.3449 30 40.3449Z" fill="white"/>
<path d="M34.8258 21.0786C33.6509 20.2841 32.2844 19.794 30.8572 19.6552V18H29.1429V19.6552C27.0324 19.8875 25.0827 20.8573 23.6617 22.3818C22.2406 23.9063 21.4464 25.8801 21.4286 27.931V31.7379L19.1144 33.9724C19.0307 34.0453 18.9644 34.1348 18.92 34.2348C18.8756 34.3349 18.8542 34.443 18.8572 34.5517V36.4883L34.8258 21.0786Z" fill="white"/>
</svg>
