<svg width="60" height="61" viewBox="0 0 60 61" fill="none" xmlns="http://www.w3.org/2000/svg">
<circle cx="30" cy="30.4608" r="30" fill="#131023"/>
<path d="M41.6736 39.2105L36.9997 34.5375C36.7888 34.3266 36.5029 34.2094 36.2029 34.2094H35.4388C36.7326 32.5547 37.5013 30.4739 37.5013 28.2099C37.5013 22.8244 33.1368 18.4608 27.7509 18.4608C22.365 18.4608 18 22.8244 18 28.2099C18 33.5953 22.3645 37.9589 27.7509 37.9589C30.0149 37.9589 32.0966 37.1902 33.7513 35.8964V36.6605C33.7513 36.9605 33.8685 37.2464 34.0795 37.4574L38.7533 42.1303C39.194 42.571 39.9065 42.571 40.3424 42.1303L41.6689 40.8038C42.1096 40.3632 42.1096 39.6511 41.6736 39.2105ZM27.7509 34.9589C24.0225 34.9589 21.0009 31.943 21.0009 28.2099C21.0009 24.4819 24.0173 21.4608 27.7509 21.4608C31.4793 21.4608 34.5009 24.4768 34.5009 28.2099C34.5009 31.9378 31.4845 34.9589 27.7509 34.9589ZM27.7518 23.7108C25.8403 23.7108 24.2906 25.26 24.2906 27.1716C24.2906 28.7166 26.5528 31.5333 27.4195 32.5557C27.4601 32.6043 27.511 32.6434 27.5684 32.6703C27.6258 32.6971 27.6884 32.711 27.7518 32.711C27.8152 32.711 27.8778 32.6971 27.9353 32.6703C27.9927 32.6434 28.0435 32.6043 28.0842 32.5557C28.9509 31.5333 31.2131 28.7171 31.2131 27.1716C31.2131 25.26 29.6634 23.7108 27.7518 23.7108ZM27.7518 28.2108C27.1303 28.2108 26.6268 27.7069 26.6268 27.0858C26.6268 26.4643 27.1307 25.9608 27.7518 25.9608C28.3729 25.9608 28.8768 26.4643 28.8768 27.0858C28.8768 27.7069 28.3729 28.2108 27.7518 28.2108Z" fill="white"/>
</svg>
