<svg width="60" height="61" viewBox="0 0 60 61" fill="none" xmlns="http://www.w3.org/2000/svg">
<circle cx="30" cy="30.4609" r="30" fill="#131023"/>
<path d="M41.8766 40.9935L40.1434 35.6609H38.2416L39.2977 40.8609H20.703L21.7591 35.6609H19.8573L18.1228 40.9935C17.6829 42.3507 18.4626 43.4609 19.8573 43.4609H40.1434C41.538 43.4609 42.3178 42.3507 41.8766 40.9935ZM36.3397 23.9609C36.3397 22.237 35.6718 20.5837 34.483 19.3647C33.2941 18.1458 31.6817 17.4609 30.0003 17.4609C28.319 17.4609 26.7066 18.1458 25.5177 19.3647C24.3288 20.5837 23.6609 22.237 23.6609 23.9609C23.6609 30.1684 30.0003 36.9609 30.0003 36.9609C30.0003 36.9609 36.3397 30.1684 36.3397 23.9609ZM26.5771 24.0389C26.5771 22.1006 28.1087 20.5302 30.0003 20.5302C30.9081 20.5302 31.7786 20.9 32.4205 21.5581C33.0624 22.2162 33.423 23.1089 33.423 24.0396C33.423 24.9703 33.0624 25.8629 32.4205 26.5211C31.7786 27.1792 30.9081 27.5489 30.0003 27.5489C29.0924 27.5489 28.2217 27.1791 27.5797 26.5209C26.9377 25.8626 26.5771 24.9698 26.5771 24.0389Z" fill="white"/>
</svg>
